<?xml version="1.0" standalone="no"?>
<!DOCTYPE svg PUBLIC "-//W3C//DTD SVG 20010904//EN"
 "http://www.w3.org/TR/2001/REC-SVG-20010904/DTD/svg10.dtd">
<svg version="1.0" xmlns="http://www.w3.org/2000/svg"
 width="385.000000pt" height="285.000000pt" viewBox="0 0 385.000000 285.000000"
 preserveAspectRatio="xMidYMid meet">
<metadata>
Created by potrace 1.16, written by Peter Selinger 2001-2019
</metadata>
<g transform="translate(0.000000,285.000000) scale(0.100000,-0.100000)"
fill="#000000" stroke="none">
<path d="M2 1428 l-2 -1428 1925 0 1925 0 -2 1428 -3 1427 -2 -1412 -3 -1413
-1915 0 -1915 0 -3 1413 -2 1412 -3 -1427z"/>
<path d="M1779 2310 c-169 -29 -309 -197 -309 -372 0 -57 0 -58 -39 -77 -55
-29 -109 -96 -128 -160 -13 -45 -13 -63 -4 -106 21 -95 98 -179 173 -191 l33
-6 130 214 c125 204 131 213 164 216 18 2 37 0 42 -5 5 -5 -46 -98 -112 -208
-67 -110 -124 -206 -126 -212 -3 -9 5 -13 24 -13 23 0 33 9 57 48 16 26 70
115 121 197 50 83 97 160 105 173 11 16 24 22 52 22 24 0 38 -5 38 -13 0 -7
-54 -101 -120 -210 -66 -109 -120 -202 -120 -208 0 -6 12 -9 27 -7 31 3 25 -5
280 417 177 294 173 276 77 380 -97 105 -219 146 -365 121z"/>
<path d="M1470 1217 l0 -54 -44 1 c-52 1 -81 -21 -95 -70 -22 -78 32 -144 102
-128 18 4 39 8 47 8 13 1 15 24 15 145 0 107 -3 145 -12 149 -9 2 -13 -12 -13
-51z m-22 -73 c20 -6 22 -12 22 -79 0 -73 0 -73 -29 -80 -53 -11 -91 27 -91
91 0 26 40 74 62 74 7 0 23 -3 36 -6z"/>
<path d="M2560 1122 l0 -150 49 -7 c56 -8 90 8 109 51 36 79 -21 166 -98 149
-29 -6 -29 -6 -32 46 -2 31 -8 54 -15 57 -10 3 -13 -31 -13 -146z m123 0 c19
-17 23 -81 7 -112 -11 -21 -53 -34 -81 -25 -16 6 -19 16 -19 80 0 62 3 74 18
77 24 6 54 -2 75 -20z"/>
<path d="M1600 1110 c0 -118 2 -140 15 -140 12 0 15 19 15 108 0 60 3 112 6
115 4 4 38 -42 76 -101 70 -108 94 -136 109 -126 13 8 11 284 -1 284 -6 0 -10
-43 -10 -109 0 -61 -4 -113 -10 -116 -8 -5 -131 170 -146 210 -3 8 -17 15 -30
15 l-24 0 0 -140z"/>
<path d="M880 1148 c-43 -30 -56 -68 -41 -120 31 -104 181 -77 181 32 0 52
-13 76 -50 95 -39 20 -51 19 -90 -7z m92 -25 c54 -61 11 -152 -62 -133 -45 11
-65 84 -34 128 19 27 74 30 96 5z"/>
<path d="M1963 1154 c-64 -32 -70 -138 -10 -174 52 -32 100 -21 130 30 33 55
15 119 -38 145 -40 18 -42 18 -82 -1z m87 -34 c44 -44 15 -130 -44 -130 -43 0
-68 28 -68 75 0 20 8 45 18 56 22 25 69 24 94 -1z"/>
<path d="M2373 1154 c-34 -17 -53 -56 -53 -106 0 -59 75 -105 134 -82 25 9 19
25 -7 19 -25 -7 -78 10 -89 28 -18 29 -7 36 60 39 l67 3 -2 35 c-1 24 -10 42
-28 57 -31 27 -40 28 -82 7z"/>
<path d="M2840 1152 c-62 -34 -67 -136 -7 -172 37 -23 56 -25 90 -9 76 34 73
161 -4 188 -41 14 -38 14 -79 -7z m90 -32 c24 -24 26 -77 4 -108 -22 -32 -78
-30 -100 4 -21 32 -20 80 2 105 22 25 69 24 94 -1z"/>
<path d="M3094 1156 c-38 -17 -59 -63 -51 -113 8 -47 33 -72 80 -80 32 -5 41
-1 72 30 45 45 48 93 8 136 -34 37 -68 45 -109 27z m79 -29 c25 -18 33 -81 14
-111 -37 -57 -121 -24 -121 47 0 63 60 99 107 64z"/>
</g>
</svg>
