<?xml version="1.0" standalone="no"?>
<!DOCTYPE svg PUBLIC "-//W3C//DTD SVG 20010904//EN"
 "http://www.w3.org/TR/2001/REC-SVG-20010904/DTD/svg10.dtd">
<svg version="1.0" xmlns="http://www.w3.org/2000/svg"
 width="388.000000pt" height="213.000000pt" viewBox="0 0 388.000000 213.000000"
 preserveAspectRatio="xMidYMid meet">

<g transform="translate(0.000000,213.000000) scale(0.100000,-0.100000)"
fill="#000000" stroke="none">
<path d="M1637 1683 c-4 -3 -7 -39 -7 -79 l0 -73 32 -3 c57 -5 48 -57 -9 -58
-21 0 -23 -5 -23 -59 l0 -60 33 -3 c27 -2 32 -7 32 -28 0 -21 -5 -26 -32 -28
l-33 -3 0 -59 0 -59 33 -3 c27 -2 32 -7 32 -28 0 -21 -5 -26 -32 -28 l-33 -3
0 -59 0 -59 33 -3 c27 -2 32 -7 32 -28 0 -21 -5 -26 -32 -28 l-33 -3 0 -59 0
-59 33 -3 c27 -2 32 -7 32 -28 0 -21 -5 -26 -33 -28 l-33 -3 3 -72 3 -72 389
-3 c279 -1 393 1 402 9 12 9 14 104 14 535 0 507 -1 524 -19 534 -22 11 -773
15 -784 3z m404 -263 c27 -27 30 -35 27 -85 -4 -72 -22 -76 -26 -5 -5 81 -17
90 -123 90 -120 0 -119 1 -119 -196 0 -196 -8 -188 177 -192 83 -2 139 0 146
7 6 6 3 20 -10 43 -30 52 -34 77 -13 88 32 17 37 12 80 -65 l41 -75 44 0 c78
0 116 -76 83 -166 -10 -27 -9 -37 6 -59 10 -15 20 -24 23 -22 3 3 5 65 5 138
0 72 3 141 8 153 5 12 9 -73 9 -213 1 -216 -5 -285 -15 -180 -5 52 -7 54 -34
39 -25 -13 -50 1 -50 30 0 9 -9 29 -21 44 l-20 26 -205 0 c-129 0 -204 4 -204
10 0 6 68 10 183 10 100 0 188 4 196 9 12 8 9 18 -17 61 -18 28 -32 60 -32 69
0 27 -26 31 -199 31 -212 0 -201 -13 -201 221 l0 178 26 20 c23 18 41 21 116
21 86 0 91 -1 119 -30z m72 -210 c5 -4 -5 -12 -22 -18 -29 -10 -31 -10 -31 14
0 22 3 24 23 19 12 -4 26 -11 30 -15z"/>
<path d="M2250 998 c1 -20 54 -111 68 -116 8 -2 12 10 12 40 0 24 -6 51 -12
60 -17 21 -68 33 -68 16z"/>
<path d="M1560 1509 c0 -5 5 -7 10 -4 6 3 10 8 10 11 0 2 -4 4 -10 4 -5 0 -10
-5 -10 -11z"/>
<path d="M1565 1340 c-3 -6 1 -7 9 -4 18 7 21 14 7 14 -6 0 -13 -4 -16 -10z"/>
<path d="M1560 1316 c0 -2 7 -9 15 -16 9 -7 15 -8 15 -2 0 5 -7 12 -15 16 -8
3 -15 4 -15 2z"/>
<path d="M1573 983 c-7 -2 -12 -14 -12 -26 1 -17 2 -18 6 -4 2 9 9 14 15 11 6
-4 8 -2 4 4 -3 5 0 13 6 15 7 3 9 5 3 5 -5 0 -16 -2 -22 -5z"/>
<path d="M342 423 c-12 -3 -40 -21 -61 -41 -64 -60 -68 -151 -10 -217 50 -57
134 -70 195 -30 20 13 22 19 14 35 -9 17 -12 18 -49 3 -49 -19 -84 -11 -122
27 -56 56 -30 147 50 171 32 9 43 8 71 -6 32 -17 34 -17 47 1 19 26 17 30 -27
48 -40 16 -62 18 -108 9z"/>
<path d="M540 270 l0 -160 90 0 c89 0 90 0 90 25 0 23 -4 24 -62 27 l-63 3 -3
133 -3 132 -24 0 -25 0 0 -160z"/>
<path d="M795 416 c-96 -42 -124 -171 -54 -251 79 -89 221 -63 264 49 50 130
-83 257 -210 202z m111 -52 c37 -18 64 -58 64 -95 0 -37 -38 -87 -75 -99 -130
-43 -206 141 -81 196 41 17 51 17 92 -2z"/>
<path d="M1070 310 c0 -131 9 -164 51 -186 43 -22 77 -17 110 15 l29 29 0 131
0 131 -25 0 -25 0 0 -125 c0 -113 -2 -125 -19 -135 -27 -14 -37 -13 -55 6 -13
12 -16 40 -16 135 l0 119 -25 0 -25 0 0 -120z"/>
<path d="M1320 269 l0 -161 64 4 c79 5 126 36 151 102 43 111 -39 215 -167
216 l-48 0 0 -161z m136 84 c13 -8 29 -33 36 -54 15 -52 -6 -99 -55 -122 -65
-31 -67 -29 -67 86 0 57 3 107 7 111 10 9 49 -1 79 -21z"/>
<path d="M1597 423 c-4 -3 -7 -75 -7 -160 l0 -153 25 0 c25 0 25 0 25 95 0 52
4 95 9 95 4 0 28 -43 52 -95 36 -78 48 -95 67 -95 22 0 22 1 22 161 l0 160
-22 -3 c-24 -3 -24 0 -28 -148 l-1 -45 -50 98 c-35 69 -54 97 -67 97 -10 0
-22 -3 -25 -7z"/>
<path d="M1945 416 c-101 -44 -125 -178 -46 -257 86 -86 229 -49 260 68 35
128 -95 241 -214 189z m137 -73 c36 -34 44 -73 23 -117 -16 -34 -65 -66 -100
-66 -25 0 -72 27 -89 52 -9 12 -16 38 -16 58 0 95 112 140 182 73z"/>
<path d="M2160 406 c0 -21 6 -25 33 -28 l32 -3 3 -132 3 -133 24 0 24 0 3 133
3 132 33 3 c26 3 32 7 32 28 0 24 -1 24 -95 24 -94 0 -95 0 -95 -24z"/>
<path d="M2390 270 l0 -160 90 0 c89 0 90 0 90 25 0 24 -2 25 -65 25 l-65 0 0
39 0 40 48 3 c43 3 47 5 47 28 0 23 -4 25 -48 28 l-48 3 3 37 3 37 63 3 c59 3
63 5 60 25 -3 20 -9 22 -90 25 l-88 3 0 -161z"/>
<path d="M2616 422 c-2 -4 -5 -76 -5 -160 l-1 -152 54 0 c67 0 101 12 116 41
17 31 16 84 -1 105 -9 11 -13 34 -11 69 3 48 1 54 -28 78 -24 20 -43 27 -75
27 -24 0 -46 -3 -49 -8z m94 -62 c26 -26 12 -60 -25 -60 -22 0 -25 5 -25 33 0
52 17 60 50 27z m30 -141 c16 -28 -13 -61 -49 -57 -22 3 -26 9 -29 41 -3 36
-3 37 32 37 26 0 38 -6 46 -21z"/>
<path d="M2913 411 c-106 -50 -120 -196 -25 -269 46 -35 135 -39 178 -6 44 32
66 68 71 116 14 124 -110 212 -224 159z m110 -45 c93 -38 87 -164 -8 -196 -48
-16 -100 2 -126 44 -34 56 -16 120 43 149 41 20 50 21 91 3z"/>
<path d="M3285 416 c-16 -8 -43 -28 -59 -45 -24 -25 -30 -42 -34 -88 -3 -48 0
-64 20 -92 52 -77 125 -99 202 -62 65 32 90 76 84 152 -3 48 -10 65 -34 90
-52 56 -118 72 -179 45z m103 -50 c46 -24 65 -52 65 -97 0 -33 -7 -47 -32 -72
-26 -27 -39 -32 -77 -32 -39 0 -50 5 -75 33 -48 54 -38 125 24 162 38 24 59
25 95 6z"/>
<path d="M3560 270 l0 -160 25 0 c24 0 25 2 25 65 0 36 4 65 8 65 4 0 25 -29
46 -65 30 -51 43 -65 62 -65 13 0 24 3 24 8 0 4 -22 45 -49 92 l-49 84 49 62
c27 34 49 65 49 68 0 3 -13 6 -28 6 -22 0 -36 -10 -62 -45 -19 -25 -37 -45
-42 -45 -4 0 -8 20 -8 45 0 41 -2 45 -25 45 l-25 0 0 -160z"/>
</g>
</svg>
